<?xml version="1.0" encoding="UTF-8" standalone="no"?>
<!-- Created with Inkscape (http://www.inkscape.org/) -->

<svg
   xmlns:dc="http://purl.org/dc/elements/1.1/"
   xmlns:cc="http://creativecommons.org/ns#"
   xmlns:rdf="http://www.w3.org/1999/02/22-rdf-syntax-ns#"
   xmlns:svg="http://www.w3.org/2000/svg"
   xmlns="http://www.w3.org/2000/svg"
   xmlns:sodipodi="http://sodipodi.sourceforge.net/DTD/sodipodi-0.dtd"
   xmlns:inkscape="http://www.inkscape.org/namespaces/inkscape"
   width="168.1438mm"
   height="50.066772mm"
   viewBox="0 0 168.1438 50.066772"
   version="1.1"
   id="svg3801"
   inkscape:version="0.92.3 (3ce5693, 2018-03-11)"
   sodipodi:docname="ground-1svg.svg">
  <defs
     id="defs3795">
    <clipPath
       clipPathUnits="userSpaceOnUse"
       id="clipPath5062">
      <g
         inkscape:label="Clip"
         id="use5064">
        <path
           id="path5670"
           d="M 63.499977,-24.070108 -1.1280832,53.382786 H -68.063351 v -77.452894 l 0.05559,24.32001241 z"
           style="fill:#8bc34a;fill-opacity:1;stroke:#ffffff;stroke-width:1.2758795;stroke-linejoin:round;stroke-miterlimit:4;stroke-dasharray:none;stroke-dashoffset:17.58047485;stroke-opacity:1"
           inkscape:connector-curvature="0" />
      </g>
    </clipPath>
  </defs>
  <sodipodi:namedview
     id="base"
     pagecolor="#ffffff"
     bordercolor="#666666"
     borderopacity="1.0"
     inkscape:pageopacity="0.0"
     inkscape:pageshadow="2"
     inkscape:zoom="4"
     inkscape:cx="98.469345"
     inkscape:cy="93.640349"
     inkscape:document-units="mm"
     inkscape:current-layer="layer1"
     showgrid="false"
     showguides="true"
     inkscape:lockguides="true"
     inkscape:window-width="1871"
     inkscape:window-height="1054"
     inkscape:window-x="49"
     inkscape:window-y="0"
     inkscape:window-maximized="1"
     fit-margin-top="0"
     fit-margin-left="0"
     fit-margin-right="0"
     fit-margin-bottom="0" />
  <metadata
     id="metadata3798">
    <rdf:RDF>
      <cc:Work
         rdf:about="">
        <dc:format>image/svg+xml</dc:format>
        <dc:type
           rdf:resource="http://purl.org/dc/dcmitype/StillImage" />
        <dc:title />
      </cc:Work>
    </rdf:RDF>
  </metadata>
  <g
     inkscape:label="Calque 1"
     inkscape:groupmode="layer"
     id="layer1"
     transform="translate(-25.979265,-72.711292)">
    <path
       style="fill:#8bc34a;fill-opacity:1;stroke:#ffffff;stroke-width:0.81099999;stroke-linecap:butt;stroke-linejoin:miter;stroke-miterlimit:4;stroke-dasharray:none;stroke-opacity:1"
       d="m 138.74089,107.50041 a 92.755978,35.518381 0 0 1 -28.85767,1.80196 92.755978,35.518381 0 0 1 -28.560017,-1.75648 L 68.95135,122.37237 h 82.19911 z"
       id="CENTER9"
       inkscape:connector-curvature="0">
      <desc
         id="desc903">CENTER9</desc>
      <title
         id="title901">CENTER9</title>
    </path>
    <path
       style="fill:#8bc34a;fill-opacity:1;stroke:#ffffff;stroke-width:0.81138098;stroke-linejoin:round;stroke-miterlimit:4;stroke-dasharray:none;stroke-dashoffset:17.58047485;stroke-opacity:1"
       d="m 193.71738,73.116982 -5.3e-4,0.278535 h 5.3e-4 z m 0,15.777848 a 92.755978,35.518381 0 0 1 -54.97649,18.60558 l 12.40957,14.87196 h 42.56692 z"
       id="BACKRIGHT9"
       inkscape:connector-curvature="0">
      <desc
         id="desc915">BACKRIGHT9</desc>
      <title
         id="title913">BACKRIGHT9</title>
    </path>
    <path
       style="fill:#8bc34a;fill-opacity:1;stroke:#ffffff;stroke-width:0.81138098;stroke-linejoin:round;stroke-miterlimit:4;stroke-dasharray:none;stroke-dashoffset:0;stroke-opacity:1"
       d="m 176.00838,73.116982 a 66.051159,18.276467 0 0 1 0.0941,0.732253 66.051159,18.276467 0 0 1 -9.97924,9.637657 l 27.55853,5.096327 0.0357,-15.466237 z"
       id="RWING"
       inkscape:connector-curvature="0">
      <desc
         id="desc919">RWING</desc>
      <title
         id="title917">RWING</title>
    </path>
    <path
       style="fill:#8bc34a;fill-opacity:1;stroke:#ffffff;stroke-width:0.81138092;stroke-linejoin:round;stroke-miterlimit:4;stroke-dasharray:none;stroke-dashoffset:17.58047485;stroke-opacity:1"
       d="m 26.384955,73.116982 v 0.278535 h 5.29e-4 z m 0,16.033128 v 33.22226 H 68.95135 L 81.323203,107.54589 A 92.755978,35.518381 0 0 1 26.384955,89.15011 Z"
       id="BACKLEFT9"
       inkscape:connector-curvature="0">
      <desc
         id="desc895">BACKLEFT9</desc>
      <title
         id="title893">BACKLEFT9</title>
    </path>
    <path
       style="fill:#8bc34a;fill-opacity:1;stroke:#ffffff;stroke-width:0.81138092;stroke-linejoin:round;stroke-miterlimit:4;stroke-dasharray:none;stroke-dashoffset:0;stroke-opacity:1"
       d="m 26.384955,73.116982 0.03514,15.466237 27.592113,-5.102529 a 66.051159,18.276467 0 0 1 -10.012307,-9.631455 66.051159,18.276467 0 0 1 0.132291,-0.732253 z"
       id="LWING"
       inkscape:connector-curvature="0">
      <desc
         id="desc887">LWING</desc>
      <title
         id="title885">LWING</title>
    </path>
    <path
       inkscape:connector-curvature="0"
       style="fill:#546e7a;fill-opacity:1;stroke:#ffffff;stroke-width:0.81138098;stroke-miterlimit:4;stroke-dasharray:none;stroke-opacity:1"
       d="m 44.132264,73.117017 a 66.051161,18.276467 0 0 0 -0.1324,0.731991 66.051161,18.276467 0 0 0 66.051156,18.276479 66.051161,18.276467 0 0 0 66.05116,-18.276479 66.051161,18.276467 0 0 0 -0.0937,-0.731991 z"
       id="path3830" />
    <text
       id="text4814"
       y="83.826645"
       x="104.98993"
       style="font-style:normal;font-weight:normal;font-size:0.90376657px;line-height:1.25;font-family:sans-serif;letter-spacing:0px;word-spacing:0px;fill:#ffffff;fill-opacity:1;stroke:none;stroke-width:0.02259416"
       xml:space="preserve"><tspan
         style="fill:#ffffff;fill-opacity:1;stroke-width:0.02259416"
         y="83.826645"
         x="104.98993"
         id="tspan4812"
         sodipodi:role="line">Penalty</tspan></text>
    <rect
       style="fill:#ea5350;fill-opacity:1;stroke:#ffffff;stroke-width:0.51237154;stroke-linejoin:round;stroke-miterlimit:35.59999847;stroke-dasharray:none;stroke-dashoffset:0;stroke-opacity:1"
       id="PENALTY"
       width="34.885387"
       height="7.0493784"
       x="92.698685"
       y="79.488579">
      <desc
         id="desc907">PENALTY</desc>
      <title
         id="title905">PENALTY</title>
    </rect>
    <text
       id="text4843"
       y="84.501991"
       x="99.991798"
       style="font-style:normal;font-weight:normal;font-size:5.39626408px;line-height:1.25;font-family:sans-serif;letter-spacing:0px;word-spacing:0px;fill:#ffffff;fill-opacity:1;stroke:none;stroke-width:0.1349066"
       xml:space="preserve"><tspan
         id="tspan4845"
         style="fill:#ffffff;fill-opacity:1;stroke-width:0.1349066"
         y="84.501991"
         x="99.991798"
         sodipodi:role="line">Penalty</tspan></text>
    <path
       style="fill:#8bc34a;fill-opacity:1;stroke:#ffffff;stroke-width:0.81099999;stroke-linejoin:round;stroke-miterlimit:35.59999847;stroke-dasharray:none;stroke-dashoffset:0;stroke-opacity:1"
       d="M 26.384955,73.395517 V 89.15011 a 92.755978,35.518381 0 0 0 54.938248,18.39578 L 94.629368,91.599056 A 66.051159,18.276467 0 0 1 54.012208,83.48069 l -27.592113,5.102529 -0.03462,-15.187702 z"
       id="BACKLEFT6"
       inkscape:connector-curvature="0">
      <desc
         id="desc891">BACKLEFT6</desc>
      <title
         id="title889">BACKLEFT6</title>
    </path>
    <path
       style="fill:#8bc34a;fill-opacity:1;stroke:#ffffff;stroke-width:0.81138098;stroke-linejoin:round;stroke-miterlimit:35.59999847;stroke-dasharray:none;stroke-dashoffset:0;stroke-opacity:1"
       d="M 94.629368,91.599056 81.323203,107.54589 a 92.755978,35.518381 0 0 0 28.560017,1.75648 92.755978,35.518381 0 0 0 28.85767,-1.80196 L 125.47245,91.599056 a 66.051159,18.276467 0 0 1 -15.42128,0.526585 66.051159,18.276467 0 0 1 -15.421802,-0.526585 z"
       id="CENTER6"
       inkscape:connector-curvature="0">
      <desc
         id="desc899">CENTER6</desc>
      <title
         id="title897">CENTER6</title>
    </path>
    <path
       style="fill:none;stroke:none;stroke-width:0.81138098;stroke-linejoin:round;stroke-miterlimit:35.59999847;stroke-dasharray:2.43414278, 0.81138093;stroke-dashoffset:0;stroke-opacity:1"
       d="M 26.38483,73.395502 V 89.15014 a 92.75598,35.518382 0 0 0 83.49818,20.15241 92.75598,35.518382 0 0 0 83.8342,-20.407916 V 73.395502 Z"
       id="ellipse4753"
       inkscape:connector-curvature="0" />
    <path
       style="fill:#8bc34a;fill-opacity:1;stroke:#ffffff;stroke-width:0.81138098;stroke-linejoin:round;stroke-miterlimit:35.59999847;stroke-dasharray:none;stroke-dashoffset:0;stroke-opacity:1"
       d="m 193.71686,73.395517 -0.0351,15.187702 -27.55853,-5.096327 a 66.051159,18.276467 0 0 1 -40.65074,8.112164 l 13.26844,15.901354 A 92.755978,35.518381 0 0 0 193.71738,88.89483 V 73.395517 Z"
       id="BACKRIGHT6"
       inkscape:connector-curvature="0">
      <desc
         id="desc911">BACKRIGHT6</desc>
      <title
         id="title909">BACKRIGHT6</title>
    </path>
    <rect
       transform="scale(1,-1)"
       style="fill:#8bc34a;fill-opacity:1;stroke:#ffffff;stroke-width:1.37972128;stroke-linejoin:round;stroke-miterlimit:35.59999847;stroke-dasharray:none;stroke-dashoffset:0;stroke-opacity:1"
       id="rect5723"
       width="14.790875"
       height="0.02036584"
       x="102.6366"
       y="-99.449295" />
  </g>
</svg>
